<?xml version="1.0" standalone="no"?>
<svg xmlns="http://www.w3.org/2000/svg" viewBox="0 0 161 31" width="161" height="31"><path fill="#EA070F" fill-rule="nonzero" d="M0 10.80L0 10.80Q0 6.62 2.34 4.33Q4.68 2.04 9.07 2.04L9.07 2.04Q11.86 2.04 13.73 2.86L13.73 2.86L13.73 7.42L12.62 7.42L11.50 3.84Q10.30 3.65 9.48 3.65L9.48 3.65Q6.41 3.65 4.72 5.47Q3.02 7.30 3.02 10.80L3.02 10.80Q3.02 14.33 4.56 16.14Q6.10 17.95 9 17.95L9 17.95Q10.06 17.95 10.90 17.78L10.90 17.78L10.90 12.77L8.16 12.26L8.16 11.42L15.62 11.42L15.62 12.26L13.85 12.77L13.85 18.38Q11.64 19.56 8.69 19.56L8.69 19.56Q4.46 19.56 2.23 17.28Q0 15 0 10.80ZM16.92 16.22L16.92 16.22Q16.92 12.07 24.29 12.07L24.29 12.07L24.29 11.23Q24.29 9.14 23.70 8.58Q23.11 8.02 21.86 8.02L21.86 8.02L19.06 10.42Q18.48 10.06 18.08 9.40Q17.69 8.74 17.66 7.99L17.66 7.99Q18.67 7.44 19.87 7.14Q21.07 6.84 22.25 6.84L22.25 6.84Q27.17 6.84 27.17 10.97L27.17 10.97L27.17 17.64L29.04 17.64L29.04 18.43Q28.49 18.96 27.82 19.26Q27.14 19.56 26.50 19.56L26.50 19.56Q25.08 19.56 24.41 18.34L24.41 18.34Q22.80 19.56 20.78 19.56L20.78 19.56Q19.20 19.56 18.06 18.72Q16.92 17.88 16.92 16.22ZM19.94 16.13L19.94 16.13Q19.94 17.02 20.53 17.45Q21.12 17.88 22.03 17.88L22.03 17.88Q23.35 17.88 24.29 17.06L24.29 17.06L24.29 13.30Q22.13 13.30 21.04 14.08Q19.94 14.86 19.94 16.13ZM36.79 19.20L29.83 19.20L29.83 18.17L31.87 17.69L31.87 1.94L29.83 1.94L29.83 0.91L33.67 0L34.75 0L34.75 17.69L36.79 18.17L36.79 19.20ZM44.76 19.20L37.80 19.20L37.80 18.17L39.84 17.69L39.84 1.94L37.80 1.94L37.80 0.91L41.64 0L42.72 0L42.72 17.69L44.76 18.17L44.76 19.20ZM46.15 13.06L46.15 13.06Q46.15 10.42 47.66 8.63Q49.18 6.84 51.84 6.84L51.84 6.84Q53.23 6.84 54.28 7.36Q55.32 7.87 55.93 8.78Q56.54 9.70 56.83 10.82Q57.12 11.95 57.12 13.27L57.12 13.27L49.01 13.27Q49.18 15.24 50.33 16.62Q51.48 18 53.47 18L53.47 18Q54.74 18 56.23 17.45L56.23 17.45L56.64 18.58Q54.41 19.56 52.39 19.56L52.39 19.56Q49.49 19.56 47.82 17.66Q46.15 15.77 46.15 13.06ZM49.01 12.10L49.01 12.10L54.14 11.71Q54.07 10.27 53.47 9.22Q52.87 8.16 51.77 8.16L51.77 8.16Q50.57 8.16 49.81 9.29Q49.06 10.42 49.01 12.10ZM66.29 19.20L58.87 19.20L58.87 18.17L60.91 17.69L60.91 9.14L58.87 9.14L58.87 8.11L62.71 7.20L63.77 7.20L63.77 8.69Q65.71 6.84 68.28 6.84L68.28 6.84Q68.42 7.30 68.42 7.85L68.42 7.85Q68.42 8.74 68.21 9.43L68.21 9.43L65.16 9.17Q64.44 9.50 63.77 9.98L63.77 9.98L63.77 17.69L66.29 18.17L66.29 19.20ZM75.02 3.55L75.02 3.55Q75.02 4.30 74.51 4.81Q73.99 5.33 73.25 5.33L73.25 5.33Q72.50 5.33 71.99 4.81Q71.47 4.30 71.47 3.55L71.47 3.55Q71.47 2.81 71.99 2.29Q72.50 1.78 73.25 1.78L73.25 1.78Q73.99 1.78 74.51 2.28Q75.02 2.78 75.02 3.55ZM76.66 19.20L69.72 19.20L69.72 18.17L71.76 17.69L71.76 9.14L69.72 9.14L69.72 8.11L73.56 7.20L74.62 7.20L74.62 17.69L76.66 18.17L76.66 19.20ZM78 16.22L78 16.22Q78 12.07 85.37 12.07L85.37 12.07L85.37 11.23Q85.37 9.14 84.78 8.58Q84.19 8.02 82.94 8.02L82.94 8.02L80.14 10.42Q79.56 10.06 79.16 9.40Q78.77 8.74 78.74 7.99L78.74 7.99Q79.75 7.44 80.95 7.14Q82.15 6.84 83.33 6.84L83.33 6.84Q88.25 6.84 88.25 10.97L88.25 10.97L88.25 17.64L90.12 17.64L90.12 18.43Q89.57 18.96 88.90 19.26Q88.22 19.56 87.58 19.56L87.58 19.56Q86.16 19.56 85.49 18.34L85.49 18.34Q83.88 19.56 81.86 19.56L81.86 19.56Q80.28 19.56 79.14 18.72Q78 17.88 78 16.22ZM81.02 16.13L81.02 16.13Q81.02 17.02 81.61 17.45Q82.20 17.88 83.11 17.88L83.11 17.88Q84.43 17.88 85.37 17.06L85.37 17.06L85.37 13.30Q83.21 13.30 82.12 14.08Q81.02 14.86 81.02 16.13ZM96.98 13.63L96.98 13.63Q96.98 10.39 98.98 8.62Q100.97 6.84 103.80 6.84L103.80 6.84Q104.81 6.84 105.55 7.06L105.55 7.06L105.55 1.94L103.51 1.94L103.51 0.91L107.35 0L108.43 0L108.43 17.64L110.30 17.64L110.30 18.43L109.92 18.74Q109.68 18.94 109.02 19.25Q108.36 19.56 107.74 19.56L107.74 19.56Q107.47 19.56 107.22 19.50Q106.97 19.44 106.78 19.34Q106.58 19.25 106.42 19.12Q106.25 18.98 106.14 18.86Q106.03 18.74 105.92 18.60Q105.82 18.46 105.77 18.36Q105.72 18.26 105.65 18.14L105.65 18.14L105.60 18.05Q104.16 19.56 102.05 19.56L102.05 19.56Q99.96 19.56 98.47 18.04Q96.98 16.51 96.98 13.63ZM99.94 13.54L99.94 13.54Q99.94 15.60 100.86 16.68Q101.78 17.76 103.06 17.76L103.06 17.76Q104.40 17.76 105.55 16.87L105.55 16.87L105.55 8.40Q104.81 8.16 104.02 8.16L104.02 8.16Q102.19 8.16 101.06 9.53Q99.94 10.90 99.94 13.54ZM112.49 7.68L111.77 2.04L114.55 2.04L113.83 7.68L112.49 7.68ZM116.40 16.22L116.40 16.22Q116.40 12.07 123.77 12.07L123.77 12.07L123.77 11.23Q123.77 9.14 123.18 8.58Q122.59 8.02 121.34 8.02L121.34 8.02L118.54 10.42Q117.96 10.06 117.56 9.40Q117.17 8.74 117.14 7.99L117.14 7.99Q118.15 7.44 119.35 7.14Q120.55 6.84 121.73 6.84L121.73 6.84Q126.65 6.84 126.65 10.97L126.65 10.97L126.65 17.64L128.52 17.64L128.52 18.43Q127.97 18.96 127.30 19.26Q126.62 19.56 125.98 19.56L125.98 19.56Q124.56 19.56 123.89 18.34L123.89 18.34Q122.28 19.56 120.26 19.56L120.26 19.56Q118.68 19.56 117.54 18.72Q116.40 17.88 116.40 16.22ZM119.42 16.13L119.42 16.13Q119.42 17.02 120.01 17.45Q120.60 17.88 121.51 17.88L121.51 17.88Q122.83 17.88 123.77 17.06L123.77 17.06L123.77 13.30Q121.61 13.30 120.52 14.08Q119.42 14.86 119.42 16.13ZM137.09 19.20L129.67 19.20L129.67 18.17L131.71 17.69L131.71 9.14L129.67 9.14L129.67 8.11L133.51 7.20L134.57 7.20L134.57 8.69Q136.51 6.84 139.08 6.84L139.08 6.84Q139.22 7.30 139.22 7.85L139.22 7.85Q139.22 8.74 139.01 9.43L139.01 9.43L135.96 9.17Q135.24 9.50 134.57 9.98L134.57 9.98L134.57 17.69L137.09 18.17L137.09 19.20ZM141.77 8.64L140.50 8.64L140.50 7.92L143.90 5.02L144.62 5.02L144.62 7.34L148.08 7.20L148.08 8.64L144.62 8.64L144.62 15.98Q144.62 18.12 146.33 18.12L146.33 18.12Q147.05 18.12 148.06 17.69L148.06 17.69L148.46 18.79Q146.98 19.56 145.39 19.56L145.39 19.56Q143.66 19.56 142.72 18.73Q141.77 17.90 141.77 15.86L141.77 15.86L141.77 8.64ZM149.57 13.06L149.57 13.06Q149.57 10.42 151.08 8.63Q152.59 6.84 155.26 6.84L155.26 6.84Q156.65 6.84 157.69 7.36Q158.74 7.87 159.35 8.78Q159.96 9.70 160.25 10.82Q160.54 11.95 160.54 13.27L160.54 13.27L152.42 13.27Q152.59 15.24 153.74 16.62Q154.90 18 156.89 18L156.89 18Q158.16 18 159.65 17.45L159.65 17.45L160.06 18.58Q157.82 19.56 155.81 19.56L155.81 19.56Q152.90 19.56 151.24 17.66Q149.57 15.77 149.57 13.06ZM152.42 12.10L152.42 12.10L157.56 11.71Q157.49 10.27 156.89 9.22Q156.29 8.16 155.18 8.16L155.18 8.16Q153.98 8.16 153.23 9.29Q152.47 10.42 152.42 12.10Z"></path><line x1="48.1608" y1="29.56" x2="112.3752" y2="29.56" stroke="#EA070F" stroke-linecap="round"></line></svg>